<?xml version="1.0" encoding="UTF-8"?>
<svg width="14px" height="11px" viewBox="0 0 14 11" version="1.1" xmlns="http://www.w3.org/2000/svg" xmlns:xlink="http://www.w3.org/1999/xlink">
    <title>view</title>
    <defs>
        <filter id="filter-1">
            <feColorMatrix in="SourceGraphic" type="matrix" values="0 0 0 0 0.200000 0 0 0 0 0.200000 0 0 0 0 0.200000 0 0 0 1.000000 0"></feColorMatrix>
        </filter>
    </defs>
    <g id="web_7" stroke="none" stroke-width="1" fill="none" fill-rule="evenodd">
        <g id="view" transform="translate(-970.000000, -578.000000)" filter="url(#filter-1)">
            <g transform="translate(970.000000, 578.000000)">
                <path d="M7,5.8 C8.21308251,5.8 9.2,6.78692 9.2,8 C9.2,9.21308 8.21308251,10.2 7,10.2 C5.78691749,10.2 4.8,9.21308 4.8,8 C4.8,6.78692 5.78691749,5.8 7,5.8 Z M7,6.68 C6.27213744,6.68 5.68,7.272152 5.68,8 C5.68,8.727848 6.27213744,9.32 7,9.32 C7.72786256,9.32 8.32,8.727848 8.32,8 C8.32,7.272152 7.72786256,6.68 7,6.68 Z M6.99998266,0 C7.30202152,0 7.54685729,0.233465047 7.54685729,0.521476541 L7.54685729,0.521476541 L7.54685729,2.88506896 C8.44961058,2.94099732 9.32816468,3.13529948 10.1466719,3.45832812 L10.1466719,3.45832812 L11.8832997,1.80230115 C12.0969089,1.59866456 12.4431352,1.59866456 12.6567171,1.80230115 C12.8702443,2.00596381 12.8702443,2.33613668 12.6566898,2.53977327 L12.6566898,2.53977327 L11.1763822,3.95135812 C12.382186,4.63921175 13.3380135,5.60423016 13.9411616,6.74336959 C14.0773333,7.00045753 13.9691069,7.31409959 13.6994703,7.44392118 C13.4302713,7.57353417 13.1011895,7.47098581 12.9648263,7.21345462 C11.9513309,5.29927068 9.69186365,3.91107406 7.00001,3.91107406 C4.31017979,3.91107406 2.04956413,5.29760196 1.03516638,7.21342855 C0.899076627,7.47054255 0.570049505,7.57371669 0.300522344,7.4438951 C0.0309131513,7.31407352 -0.077313338,7.00045753 0.0588037574,6.74334352 C0.661951787,5.60420409 1.61777927,4.63918568 2.82358314,3.95133204 L2.82358314,3.95133204 L1.34327555,2.5397472 C1.129721,2.33608453 1.129721,2.00591166 1.3432482,1.80227507 C1.55680274,1.59861241 1.90308376,1.59861241 2.11666565,1.80227507 L2.11666565,1.80227507 L3.85329338,3.45830205 C4.67180064,3.13527341 5.55035473,2.94097125 6.45310803,2.88504289 L6.45310803,2.88504289 L6.45310803,0.521476541 C6.45310803,0.233465047 6.6979438,0 6.99998266,0 Z" id="Combined-Shape" fill="#000000" fill-rule="nonzero"></path>
            </g>
        </g>
    </g>
</svg>