<?xml version="1.0" encoding="UTF-8"?>
<svg width="14px" height="14px" viewBox="0 0 14 14" version="1.1" xmlns="http://www.w3.org/2000/svg" xmlns:xlink="http://www.w3.org/1999/xlink">
    <title>menu</title>
    <g id="Symbols" stroke="none" stroke-width="1" fill="currentColor" fill-rule="evenodd">
        <g id="mobile/nav" transform="translate(-343.000000, -23.000000)" fill="">
            <g id="menu" transform="translate(343.000000, 23.000000)">
                <path d="M13.2461538,11.8461538 C13.6624916,11.8461538 14,12.1836623 14,12.6 C14,13.0163377 13.6624916,13.3538462 13.2461538,13.3538462 L0.753846154,13.3538462 C0.337508419,13.3538462 5.09866674e-17,13.0163377 0,12.6 C-5.09866674e-17,12.1836623 0.337508419,11.8461538 0.753846154,11.8461538 L13.2461538,11.8461538 Z M13.2461538,5.92307692 C13.6624916,5.92307692 14,6.26058534 14,6.67692308 C14,7.09326081 13.6624916,7.43076923 13.2461538,7.43076923 L0.753846154,7.43076923 C0.337508419,7.43076923 5.09866674e-17,7.09326081 0,6.67692308 C-5.09866674e-17,6.26058534 0.337508419,5.92307692 0.753846154,5.92307692 L13.2461538,5.92307692 Z M13.2461538,-1.12132525e-13 C13.6624916,-1.1354215e-13 14,0.337508419 14,0.753846154 C14,1.17018389 13.6624916,1.50769231 13.2461538,1.50769231 L0.753846154,1.50769231 C0.337508419,1.50769231 5.09866674e-17,1.17018389 0,0.753846154 C-5.09866674e-17,0.337508419 0.337508419,-1.12056045e-13 0.753846154,-1.12132525e-13 L13.2461538,-1.12132525e-13 Z" id="Combined-Shape"></path>
            </g>
        </g>
    </g>
</svg>