<?xml version="1.0" encoding="UTF-8"?>
<svg width="16px" height="16px" viewBox="0 0 16 16" version="1.1" xmlns="http://www.w3.org/2000/svg" xmlns:xlink="http://www.w3.org/1999/xlink">
    <g id="web_7" stroke="none" stroke-width="1" fill-rule="evenodd">
        <g id="user">
            <g transform="translate(2.000000, 1.000000)">
                <path d="M6.45685279,9 C9.51335025,9 12,11.425099 12,14.4059406 C12,14.7340396 11.7272893,15 11.3908629,15 C11.0544365,15 10.7817259,14.7340396 10.7817259,14.4059406 C10.7817259,12.0802277 8.84159391,10.1881188 6.45685279,10.1881188 L5.54314721,10.1881188 C3.15840609,10.1881188 1.21827411,12.0802277 1.21827411,14.4059406 C1.21827411,14.7340396 0.945563452,15 0.609137056,15 C0.27271066,15 0,14.7340396 0,14.4059406 C0,11.425099 2.48664975,9 5.54314721,9 L6.45685279,9 Z M6,0 C8.2056,0 10,1.7944 10,4 C10,6.2056 8.2056,8 6,8 C3.7944,8 2,6.2056 2,4 C2,1.7944 3.7944,0 6,0 Z M6,1.18518519 C4.44791111,1.18518519 3.18518519,2.44791111 3.18518519,4 C3.18518519,5.55208889 4.44791111,6.81481481 6,6.81481481 C7.55208889,6.81481481 8.81481481,5.55208889 8.81481481,4 C8.81481481,2.44791111 7.55208889,1.18518519 6,1.18518519 Z" id="Combined-Shape" fill-rule="nonzero"></path>
            </g>
        </g>
    </g>
</svg>