<?xml version="1.0" encoding="UTF-8"?>
<svg width="16px" height="16px" viewBox="0 0 16 16" version="1.1" xmlns="http://www.w3.org/2000/svg" xmlns:xlink="http://www.w3.org/1999/xlink">
    <title>search</title>
    <defs>
        <filter id="filter-1">
            <feColorMatrix in="SourceGraphic" type="matrix" values="0 0 0 0 0.831373 0 0 0 0 0.768627 0 0 0 0 0.717647 0 0 0 1.000000 0"></feColorMatrix>
        </filter>
    </defs>
    <g id="web_7" stroke="none" stroke-width="1" fill-rule="evenodd">
        <g id="search">
            <g>
                <path d="M6.96774194,0 C3.12583298,0 0,3.12583298 0,6.96774194 C0,10.8098672 3.12583298,13.9354839 6.96774194,13.9354839 C10.8098672,13.9354839 13.9354839,10.8098672 13.9354839,6.96774194 C13.9354839,3.12583298 10.8098672,0 6.96774194,0 Z M6.96774194,12.6491615 C3.83504857,12.6491615 1.28635331,10.1004662 1.28635331,6.96777284 C1.28635331,3.83507948 3.83504857,1.28635331 6.96774194,1.28635331 C10.1004353,1.28635331 12.6491306,3.83504857 12.6491306,6.96774194 C12.6491306,10.1004353 10.1004353,12.6491615 6.96774194,12.6491615 Z" id="Shape" fill-rule="nonzero"></path>
                <path d="M15.8044488,14.8607302 L11.9779858,11.0342611 C11.7172509,10.7735259 11.2949957,10.7735259 11.0342608,11.0342611 C10.773526,11.294772 10.773526,11.7174767 11.0342608,11.9779875 L14.8607239,15.8044566 C14.9910753,15.9348082 15.1617346,16 15.3325864,16 C15.5032136,16 15.6740654,15.9348082 15.8044488,15.8044566 C16.0651837,15.5439457 16.0651837,15.121241 15.8044488,14.8607302 Z" id="Path" fill-rule="nonzero"></path>
            </g>
        </g>
    </g>
</svg>